<svg height="512" viewBox="0 0 60 44" width="512" xmlns="http://www.w3.org/2000/svg"><g id="072---Up-And-Down-Arrows"><path id="Shape" d="m58.332 28.226c.6435801-.1121328 1.1926568-.5297489 1.4725801-1.1200134.2799233-.5902644.2558435-1.2796907-.0645801-1.8489866l-10.918-19.246c-.2387563-.42906718-.6321507-.75093535-1.1-.9-4.79-2.079-3.771-1.64-3.941-1.7-.9665857-.36764464-2.0536066.06716373-2.5 1l-11.081 22.689c-.2403577.4987846-.2631905 1.0748915-.0630613 1.5911339s.6053113.9264228 1.1190613 1.1328661c4.168 1.786 4.131 1.848 4.744 1.845v8.331c.0027617.8616464.5541476 1.6257844 1.371 1.9 3.988 1.719 4.261 1.979 5.112 1.761l9.994-2.5c.8937735-.2175339 1.520609-1.0211585 1.514-1.941v-10.369zm-15.161-22.914 2.071.9-11.042 22.621c-.047.1.245.189-2.2-.854zm-5.171 34.688v-8.555l2-.265v9.674c-1.916-.826-1.893-.822-2-.854zm20-13.747-4.315.62c-.9729746.1521847-1.6889237.9922034-1.685 1.977v10.37l-10 2.5v-10.54c.0004161-.5816478-.2524007-1.1346621-.6925535-1.5148987-.4401527-.3802367-1.0240311-.5500221-1.5994465-.4651013l-3.708.5 11.082-22.7z"/><path id="Shape" d="m.168 16.972c-.018.029-.047.049-.063.081-.07188823.1531333-.10256583.3223771-.089.491-.04096817.4013371.04433008.805455.244 1.156l10.916 19.246c.1970389.3696663.5146272.6607889.9.825l5.944 2.971c.4776031.2439883 1.0334415.284977 1.5416682.1136858s.9258556-.5403744 1.1583318-1.0236858l11.08-22.703c.4652741-.9515023.0940331-2.1005815-.84-2.6-.262-.155.425.2-4.961-2.5v-7.788c.0067084-.69303695-.3569981-1.33695749-.954-1.689-.244-.177-5.025-2.58-6.131-2.987l.042-.073c-.4369823-.24818954-.9532557-.31702599-1.44-.192l-9.981 2.5c-.38945028.10519628-.74084593.31922502-1.013.617-.025.028-.06.045-.083.074-.28130141.35719169-.43291822.79934863-.43 1.254v10.364l-4.352.627c-.6768102.1265053-1.24005553.5940481-1.489 1.236zm12.746 19.98-9.822-17.288 2.967 1.484c.1.458-.665-.98 9.65 17.2zm6.009 3-10.923-19.24 4.331-.626c.9651113-.1590071 1.6721953-.994883 1.669-1.973v-10.372l10-2.5v10.539c-.000183.5829201.2539599 1.1369116.6959214 1.5169984.4419614.3800869 1.0277536.5484397 1.6040786.4610016l3.687-.5.012.006zm7.885-24.284-.808.112v-.512zm-8.845-13.439c.09.049-.437-.229 3.3 1.635-8.493 2.123-7.842 1.94-8.136 2.083l-3.322-1.662zm-11.642 14.858c.96904902-.1575741 1.68043731-.9952243 1.679-1.977v-9.49c4.428 2.213 4.01 1.953 4.01 2.121v10.369c-4.7.681-4.721.576-5.328 1.114l-3.4-1.7z"/></g></svg>